Coordinates
version=1
nRows=12
nColumns=24
inDegrees=yes

Units are S.I. units (second, meters, Newtons, ...)
Angles are in degrees.

endheader
time	pelvis_tilt	pelvis_list	pelvis_rotation	pelvis_tx	pelvis_ty	pelvis_tz	hip_flexion_r	hip_adduction_r	hip_rotation_r	knee_angle_r	ankle_angle_r	subtalar_angle_r	mtp_angle_r	hip_flexion_l	hip_adduction_l	hip_rotation_l	knee_angle_l	ankle_angle_l	subtalar_angle_l	mtp_angle_l	lumbar_extension	lumbar_bending	lumbar_rotation
      5.21500000	     -9.24020276	      6.32713617	      2.73494834	     -0.91323522	     -0.00595451	     -0.34824395	     25.36856764	    -11.70088638	     -8.88091668	    -64.32741800	    -15.09748833	      3.10821226	     38.02879613	     13.84062182	     10.86722362	     12.59298879	    -13.12553666	      0.27810313	     -5.66558327	      4.71043030	      6.10462037	     -8.46388043	      1.83266785
      5.22000000	     -9.15947513	      6.13166462	      2.86011754	     -0.90832341	     -0.00545288	     -0.34863641	     25.95882063	    -11.48408973	     -9.05199555	    -64.00120705	    -14.55132931	      3.27832493	     38.28991007	     13.28677494	     10.67690632	     12.84158249	    -12.90069332	      0.50776214	     -5.63503435	      4.69838860	      5.94403686	     -8.27360448	      1.52198213
      5.22500000	     -9.04475911	      5.96319744	      3.02575919	     -0.90345478	     -0.00494191	     -0.34907329	     26.48264928	    -11.31024571	     -9.23719499	    -63.61079011	    -13.96954203	      3.48789404	     38.53855825	     12.69562319	     10.51742850	     13.07511363	    -12.66672164	      0.70779056	     -5.56742458	      4.68145666	      5.73026189	     -8.11635881	      1.11704668
      5.23000000	     -8.91500355	      5.80567908	      3.16810071	     -0.89860640	     -0.00444739	     -0.34946349	     26.98141570	    -11.12912837	     -9.39090915	    -63.15968465	    -13.40296339	      3.65162254	     38.70762676	     12.08546580	     10.35461087	     13.28002300	    -12.41778777	      0.89376952	     -5.48964206	      4.67183364	      5.50190771	     -7.96376317	      0.74108977
      5.23500000	     -8.82427983	      5.64157849	      3.26872740	     -0.89374002	     -0.00406226	     -0.34979699	     27.52246743	    -10.91571525	     -9.50060901	    -62.65670621	    -12.88346508	      3.74340812	     38.79682799	     11.51350975	     10.17032649	     13.45664699	    -12.15503462	      1.12047096	     -5.42328491	      4.71624214	      5.33477857	     -7.79509044	      0.46192006
      5.24000000	     -8.69897546	      5.48666063	      3.39456010	     -0.88888987	     -0.00366825	     -0.35014463	     27.99392884	    -10.71735957	     -9.61851637	    -62.08564807	    -12.33754630	      3.86318089	     38.83562667	     10.90495608	      9.99328992	     13.62074381	    -11.88857477	      1.33372296	     -5.31635757	      4.78095456	      5.12323989	     -7.63931043	      0.12151199
      5.24500000	     -8.55026228	      5.34079122	      3.51002601	     -0.88404012	     -0.00328864	     -0.35046354	     28.42128122	    -10.51692924	     -9.71533806	    -61.45311047	    -11.79875510	      3.97291554	     38.78745900	     10.26873115	      9.81632818	     13.76040602	    -11.61224007	      1.54217401	     -5.20312774	      4.86320445	      4.89071980	     -7.48981787	     -0.20936977
      5.25000000	     -8.34517510	      5.22419758	      3.62809314	     -0.87919946	     -0.00288409	     -0.35074740	     28.76426947	    -10.34101775	     -9.80454312	    -60.76692714	    -11.22462497	      4.08398433	     38.56839522	      9.56974904	      9.66014112	     13.86169342	    -11.32632620	      1.71340365	     -5.06427262	      4.96879529	      4.58851316	     -7.37030271	     -0.56836970
      5.25500000	     -8.19469387	      5.09550529	      3.72361326	     -0.87434256	     -0.00259743	     -0.35098240	     29.15528230	    -10.13284471	     -9.85373303	    -60.02551642	    -10.67557417	      4.18266748	     38.30299678	      8.93244559	      9.48704134	     13.96243945	    -11.04365059	      1.90744252	     -4.96630412	      5.09100478	      4.36060523	     -7.23537862	     -0.87092787
      5.26000000	     -8.03680901	      4.97187202	      3.82308232	     -0.86949600	     -0.00234900	     -0.35119480	     29.51370127	     -9.92537393	     -9.88752566	    -59.22210877	    -10.12192827	      4.29475033	     37.99057338	      8.29310815	      9.31612772	     14.06891377	    -10.77078655	      2.10289643	     -4.87286280	      5.22212958	      4.12556431	     -7.11224651	     -1.16802599
      5.26500000	     -7.87916833	      4.85891178	      3.92104367	     -0.86465921	     -0.00214770	     -0.35140933	     29.85211541	     -9.72680222	     -9.90169694	    -58.36342330	     -9.57341143	      4.41765019	     37.63315031	      7.65734756	      9.15629556	     14.18003459	    -10.50364724	      2.29097683	     -4.79465964	      5.34550648	      3.88959217	     -6.98850269	     -1.46015174
      5.27000000	     -7.71825630	      4.75207641	      4.01989010	     -0.85982032	     -0.00199553	     -0.35156375	     30.16277352	     -9.52470039	     -9.89165437	    -57.44769866	     -9.02122982	      4.56370246	     37.21669101	      7.02389390	      8.99931072	     14.31184277	    -10.25188255	      2.49562566	     -4.74620483	      5.46008123	      3.65317039	     -6.88524277	     -1.75116021
